<?xml version="1.0" encoding="UTF-8" standalone="no"?>
<svg
   xmlns:dc="http://purl.org/dc/elements/1.1/"
   xmlns:cc="http://creativecommons.org/ns#"
   xmlns:rdf="http://www.w3.org/1999/02/22-rdf-syntax-ns#"
   xmlns:svg="http://www.w3.org/2000/svg"
   xmlns="http://www.w3.org/2000/svg"
   xmlns:sodipodi="http://sodipodi.sourceforge.net/DTD/sodipodi-0.dtd"
   xmlns:inkscape="http://www.inkscape.org/namespaces/inkscape"
   version="1.1"
   id="svg2"
   viewBox="0 0 99.999997 99.999997"
   height="28.222221mm"
   width="28.222221mm"
   inkscape:version="0.91 r13725"
   sodipodi:docname="help.svg">
  <sodipodi:namedview
     pagecolor="#ffffff"
     bordercolor="#666666"
     borderopacity="1"
     objecttolerance="10"
     gridtolerance="10"
     guidetolerance="10"
     inkscape:pageopacity="0"
     inkscape:pageshadow="2"
     inkscape:window-width="2560"
     inkscape:window-height="1390"
     id="namedview4844"
     showgrid="false"
     inkscape:zoom="7.9999999"
     inkscape:cx="111.03427"
     inkscape:cy="45.689785"
     inkscape:window-x="0"
     inkscape:window-y="25"
     inkscape:window-maximized="1"
     inkscape:current-layer="text6357" />
  <defs
     id="defs4" />
  <metadata
     id="metadata7">
    <rdf:RDF>
      <cc:Work
         rdf:about="">
        <dc:format>image/svg+xml</dc:format>
        <dc:type
           rdf:resource="http://purl.org/dc/dcmitype/StillImage" />
        <dc:title />
      </cc:Work>
    </rdf:RDF>
  </metadata>
  <g
     id="g5586"
     style="fill:#d35f5f"
     transform="matrix(1.0934718,0,0,1.0934718,-3.2156213,-4.6799987)">
    <g
       style="font-style:normal;font-weight:normal;font-size:65.67064667px;line-height:125%;font-family:sans-serif;letter-spacing:0px;word-spacing:0px;fill:#2b0000;fill-opacity:1;stroke:none;stroke-width:1px;stroke-linecap:butt;stroke-linejoin:miter;stroke-opacity:1"
       id="text6357">
      <path
         d="m 41.902582,58.017677 11.09834,0 0,-0.985059 c 0.591035,-3.217862 4.334262,-5.779017 7.552124,-8.996879 2.626826,-2.561155 4.793957,-5.516334 4.793957,-9.850597 0,-7.814807 -5.713346,-12.346082 -15.826626,-12.346082 -10.113279,0 -17.205709,5.384993 -17.534062,15.301261 l 11.426692,0 c 0.459695,-3.611885 2.364144,-5.779017 5.187981,-5.779017 2.758167,0 4.00591,1.379084 4.00591,3.940239 0,2.298473 -2.03579,4.268592 -4.268592,6.435723 -3.02085,2.889509 -6.435724,6.0417 -6.435724,11.032669 l 0,1.247742 z m 5.582005,16.154979 c 3.808898,0 6.961089,-2.889508 6.961089,-6.501394 0,-3.611885 -3.152191,-6.567064 -6.961089,-6.567064 -3.940238,0 -7.092429,2.955179 -7.092429,6.567064 0,3.611886 3.152191,6.501394 7.092429,6.501394 z"
         style="font-style:normal;font-variant:normal;font-weight:bold;font-stretch:normal;font-size:65.67064667px;line-height:125%;font-family:Graphik;-inkscape-font-specification:'Graphik, Bold';text-align:start;writing-mode:lr-tb;text-anchor:start;fill:#ffffff"
         id="path4144" />
    </g>
  </g>
</svg>
