<?xml version="1.0" encoding="UTF-8" standalone="no"?>
<svg
   xmlns:dc="http://purl.org/dc/elements/1.1/"
   xmlns:cc="http://creativecommons.org/ns#"
   xmlns:rdf="http://www.w3.org/1999/02/22-rdf-syntax-ns#"
   xmlns:svg="http://www.w3.org/2000/svg"
   xmlns="http://www.w3.org/2000/svg"
   width="28.222221mm"
   height="28.222221mm"
   viewBox="0 0 99.999997 99.999997"
   id="svg2"
   version="1.1">
  <defs
     id="defs4" />
  <metadata
     id="metadata7">
    <rdf:RDF>
      <cc:Work
         rdf:about="">
        <dc:format>image/svg+xml</dc:format>
        <dc:type
           rdf:resource="http://purl.org/dc/dcmitype/StillImage" />
        <dc:title></dc:title>
      </cc:Work>
    </rdf:RDF>
  </metadata>
  <path
     id="path4136"
     d="M 57.012694,11.98535 A 36.575638,40.924089 0 0 0 27.60449,28.655272 l -0.0039,0 a 36.575638,40.924089 0 0 0 0.002,0.002 36.575638,40.924089 0 0 0 -0.002,0.002 l 0.0039,0 a 36.575638,40.924089 0 0 0 15.486329,13.509765 5,5 0 0 0 1.878906,4.859375 5,5 0 0 0 7.009765,-0.927734 5,5 0 0 0 0.634766,-1.101563 36.575638,40.924089 0 0 0 4.398438,0.328125 36.575638,40.924089 0 0 0 29.40625,-16.669922 l 0.002,0 a 36.575638,40.924089 0 0 0 0.002,-0.002 l -0.0039,0 A 36.575638,40.924089 0 0 0 57.012694,11.98535 Z m 10.558593,5.589844 a 29.271605,32.751684 0 0 1 12.97461,11.080078 l 0.002,0 a 29.271605,32.751684 0 0 1 0,0.002 29.271605,32.751684 0 0 1 0,0.002 l -0.002,0 a 29.271605,32.751684 0 0 1 -23.533203,13.33975 29.271605,32.751684 0 0 1 -4.222657,-0.390625 5,5 0 0 0 -1.740234,-2.517578 5,5 0 0 0 -6.041016,-0.02539 29.271605,32.751684 0 0 1 -11.53125,-10.408204 l -0.002,0 a 29.271605,32.751684 0 0 1 -0.002,-0.002 l 0.0039,0 A 29.271605,32.751684 0 0 1 46.452047,17.5771 13.182167,13.03729 0 0 0 43.829,25.356397 a 13.182167,13.03729 0 0 0 13.183594,13.03711 13.182167,13.03729 0 0 0 13.18164,-13.03711 13.182167,13.03729 0 0 0 -2.623047,-7.78125 z M 38.8916,49.852538 a 5,5 0 0 0 -3.882813,1.958984 5,5 0 0 0 0.927735,7.009766 5,5 0 0 0 7.009765,-0.927734 5,5 0 0 0 -0.927734,-7.009766 5,5 0 0 0 -3.126953,-1.03125 z m -9.033203,11.792969 a 5,5 0 0 0 -3.882813,1.958984 5,5 0 0 0 0.929688,7.009766 5,5 0 0 0 7.009765,-0.927735 5,5 0 0 0 -0.929687,-7.009765 5,5 0 0 0 -3.126953,-1.03125 z m -13.482422,4.966797 -1.398438,10.701171 -1.40039,10.701172 9.966797,-4.138672 9.96875,-4.138671 -8.56836,-6.5625 -8.568359,-6.5625 z"
     style="fill:#ffffff;fill-opacity:1;stroke-width:0.60000002;stroke-miterlimit:4;stroke-dasharray:none" />
</svg>
