<?xml version="1.0" encoding="UTF-8" standalone="no"?>
<svg
   xmlns:dc="http://purl.org/dc/elements/1.1/"
   xmlns:cc="http://creativecommons.org/ns#"
   xmlns:rdf="http://www.w3.org/1999/02/22-rdf-syntax-ns#"
   xmlns:svg="http://www.w3.org/2000/svg"
   xmlns="http://www.w3.org/2000/svg"
   xmlns:sodipodi="http://sodipodi.sourceforge.net/DTD/sodipodi-0.dtd"
   xmlns:inkscape="http://www.inkscape.org/namespaces/inkscape"
   version="1.1"
   id="svg2"
   viewBox="0 0 99.999997 99.999997"
   height="28.222221mm"
   width="28.222221mm"
   inkscape:version="0.91 r13725"
   sodipodi:docname="restart.svg">
  <sodipodi:namedview
     pagecolor="#ffffff"
     bordercolor="#666666"
     borderopacity="1"
     objecttolerance="10"
     gridtolerance="10"
     guidetolerance="10"
     inkscape:pageopacity="0"
     inkscape:pageshadow="2"
     inkscape:window-width="2560"
     inkscape:window-height="1390"
     id="namedview4844"
     showgrid="false"
     inkscape:zoom="3.3375441"
     inkscape:cx="-76.180369"
     inkscape:cy="27.789521"
     inkscape:window-x="0"
     inkscape:window-y="25"
     inkscape:window-maximized="1"
     inkscape:current-layer="svg2" />
  <defs
     id="defs4" />
  <metadata
     id="metadata7">
    <rdf:RDF>
      <cc:Work
         rdf:about="">
        <dc:format>image/svg+xml</dc:format>
        <dc:type
           rdf:resource="http://purl.org/dc/dcmitype/StillImage" />
        <dc:title></dc:title>
      </cc:Work>
    </rdf:RDF>
  </metadata>
  <path
     style="fill:#ffffff;fill-opacity:1;stroke:none;stroke-width:0.60000002;stroke-miterlimit:4;stroke-dasharray:none"
     d="m 47.195958,21.487534 a 28.542214,28.542214 0 0 0 -19.384535,8.33852 28.542214,28.542214 0 0 0 0,40.364527 28.542214,28.542214 0 0 0 37.41975,2.518024 l -4.823558,-6.505781 a 20.442162,20.442162 0 0 1 -26.867776,-1.738889 20.442162,20.442162 0 0 1 0,-28.911236 20.442162,20.442162 0 0 1 27.882424,-0.942045 l -8.933497,7.674484 14.029751,4.922719 14.029749,4.922719 -2.751764,-14.61056 -2.751765,-14.61233 -2.096583,1.800865 -0.03719,-0.13812 -1.211202,1.211201 -4.104626,3.525588 A 28.542214,28.542214 0 0 0 47.195954,21.487534 Z"
     id="path5415"
     inkscape:connector-curvature="0" />
</svg>
